PathFileType	4	(X/Y/Z)	Patient4_TMGait_0pt3_01_left_03.trc.trc
DataRate	CameraRate	NumFrames	NumMarkers	Units	OrigDataRate	OrigDataStartFrame	OrigNumFrames
53.231939163498	53.231939163498	6	33	mm	53.231939163498	106	       141
Frame#	Time	Sacral			L.Shoulder			Chest			R.Shoulder			Neck			R.ASIS			L.ASIS			R.Thigh.Superior			R.Thigh.Lateral			R.Thigh.Inferior			R.Patella			L.Thigh.Superior			L.Thigh.Lateral			L.Thigh.Inferior			L.Patella			L.Shank.Superior			L.Shank.Lateral			L.Shank.Inferior			R.Shank.Superior			R.Shank.Lateral			R.Shank.Inferior			R.Heel			R.Midfoot.Superior			R.Midfoot.Lateral			R.Toe			L.Heel			L.Midfoot.Lateral			L.Midfoot.Superior			L.Toe			L.Elbow			L.Wrist			R.Elbow			R.Wrist			
		X1	Y1	Z1	X2	Y2	Z2	X3	Y3	Z3	X4	Y4	Z4	X5	Y5	Z5	X6	Y6	Z6	X7	Y7	Z7	X8	Y8	Z8	X9	Y9	Z9	X10	Y10	Z10	X11	Y11	Z11	X12	Y12	Z12	X13	Y13	Z13	X14	Y14	Z14	X15	Y15	Z15	X16	Y16	Z16	X17	Y17	Z17	X18	Y18	Z18	X19	Y19	Z19	X20	Y20	Z20	X21	Y21	Z21	X22	Y22	Z22	X23	Y23	Z23	X24	Y24	Z24	X25	Y25	Z25	X26	Y26	Z26	X27	Y27	Z27	X28	Y28	Z28	X29	Y29	Z29	X30	Y30	Z30	X31	Y31	Z31	X32	Y32	Z32	X33	Y33	Z33	

106	6.862500000000	836.126283154737	991.533125868734	558.491109740059	1004.581794274152	1427.692603691949	375.398470090840	1104.709545508317	1363.657121483001	539.468274384924	1013.590527741599	1434.367972085537	710.783225985277	987.714314608105	1490.262739409826	532.133830070211	1069.271783298975	942.138523192760	679.516977375527	1055.803958083350	957.597696826897	405.512730952098	1116.547332237446	740.463732074846	644.366945609979	1035.064936771768	625.014141360021	694.392747390950	1115.042479047087	577.886672383622	614.955984866505	1115.627778596262	485.296370335935	616.100212125359	1142.229845913467	770.631232910032	441.927628998053	1101.357281674719	642.346350309871	364.331391051708	1198.743034909740	579.814200359855	435.876843875691	1210.064702037008	489.988837879967	426.082255731203	1143.583148582998	425.753741838128	410.840195678215	1002.664746699794	383.705243703467	361.143860731336	995.766325878741	250.230017143429	405.290048064274	1078.222437685417	397.355934908675	617.342969831520	998.032820069370	296.900323774009	672.266064437188	1032.172509457189	202.024750096212	605.900392377946	887.219382051707	44.135404107423	565.150303757224	1057.256002608931	97.080009818462	611.074265122469	966.377854439797	37.240390869943	644.037854820046	1175.098827661229	42.875187246652	646.115942091067	810.437538151933	178.176452062349	444.688497512846	864.003975606805	142.015588860159	357.746846189231	969.153340694305	149.107290541270	375.574140442021	1045.288419113413	41.725057864720	332.119951956292	979.102879165866	1070.020715348470	274.494330005275	1045.769477685542	817.602134043597	275.096641981137	1074.228333158640	1099.597501588201	848.746530945667	1324.260652688837	1038.069039051308	852.638337508201	
107	6.881285714286	835.356111111958	991.168745326650	561.514517284334	1002.300276681835	1426.426379866949	375.899785349438	1104.600027527798	1362.726489436734	538.767444343751	1016.111744755809	1434.074426042467	711.172215142422	987.572633162414	1489.585150622563	532.323591301267	1069.571793329788	941.314859254777	680.269162429977	1053.486873390336	957.099770283934	406.384381930489	1116.080323801792	739.536671067252	644.675274860086	1034.802555501457	624.038705269880	695.043008063681	1114.275289142132	576.915495398240	615.087521045219	1114.652551768477	483.942413928622	616.142306959287	1141.460299997337	772.194228627352	443.059451814780	1102.329707550591	643.573292702269	365.466522679138	1200.468410353724	582.478351782034	436.984401572912	1213.969025043117	493.660417016420	427.139289255230	1150.706421208730	427.714890328256	411.674965020087	1012.462415565766	378.048939667013	362.437510653328	1013.448315473050	244.399710701410	406.433722211512	1076.144579184645	396.204531287868	617.374452636017	995.170362197693	296.397687920116	672.397213163455	1028.051504151543	201.331499428422	605.790329567347	881.582468197878	44.160478874320	565.221180689132	1051.664790755003	97.022374624195	611.083345766379	960.753856605479	37.256683662251	644.091990646805	1169.476093143330	42.715854499794	646.163068742817	832.892641441133	159.887623392794	446.293420108169	888.799872243508	128.760137304892	358.776107230464	993.139410229282	143.274838558161	376.476719763724	1076.796917059601	42.580663714526	331.655293966091	967.137604861863	1069.460788325029	276.466991464252	1018.220895356883	813.068436613592	278.470288060268	1085.748019469021	1101.351043470792	848.539428657948	1338.576709533056	1054.433871763546	847.424790521633	
108	6.900071428571	834.662907570062	991.008697351245	564.375395641003	1000.004420034819	1425.356984147647	376.241349353294	1104.506046377067	1361.916830201642	537.817001671655	1018.742499776434	1433.915753193904	711.299376353990	987.480246222065	1489.041256582560	532.308502357296	1069.818701710744	940.575588426648	680.748301502046	1051.170496743898	956.706443963880	406.986094213496	1115.237919263480	738.600687374177	644.751217993108	1034.080972856594	623.179395056861	695.589169433935	1112.910641460228	575.959237626260	615.068043470177	1112.939727190148	482.712125740144	616.068699555268	1140.149307728989	773.454180697634	443.844554283021	1102.425874136122	644.630903818470	366.183458769825	1201.107698396554	584.742360926124	437.692030516863	1216.736836966863	497.194291463557	427.809986950829	1157.026320152892	429.631429395482	412.158012473534	1022.267926030475	371.813398408389	363.079334926478	1031.617991291663	238.431561622167	407.111067087468	1073.534330442850	395.178394603445	617.378653265284	991.910956570705	295.916891618968	672.504304930750	1023.687518006952	200.700041383708	605.686348537155	875.949447637588	44.161678065489	565.311874455235	1046.037922657479	96.955333554234	611.079081514749	955.118047518475	37.262363614925	644.155973195026	1163.835984000082	42.596068150609	646.206693880787	856.820904322086	141.405360995938	447.110167428079	915.035623135209	115.154212376628	359.335193598612	1018.078081607576	137.177623239884	377.122618554704	1109.088977828310	43.539128311392	331.624218699012	954.544878205862	1069.559483471656	278.135783854216	991.949723356239	810.678200478659	281.697709116137	1096.939286867137	1103.436573861479	848.017924988472	1351.506774518004	1070.822098838295	841.667313111886	
109	6.918857142857	834.078525253303	991.099735586993	567.072204750267	997.689172070943	1424.545921247289	376.425092531541	1104.422746011244	1361.293119376245	536.617491817184	1021.462434974887	1433.947318068208	711.158354226214	987.428965683957	1488.682205251459	532.096447384640	1070.034104673731	939.961403874933	680.954435433683	1048.875186513106	956.475770335695	407.317864578212	1114.009826609437	737.682341296923	644.617215436845	1032.837931947488	622.483449716322	696.040411093338	1110.873593892104	575.043711107316	614.922660089923	1110.394801320620	481.648746719010	615.903582984885	1138.344625564517	774.456119557443	444.289431518737	1101.697739675697	645.558628147062	366.454765536409	1200.723339763490	586.625834124141	437.973211817013	1218.400982953325	500.594016084278	428.079657140885	1162.484281928659	431.566823406052	412.304470472802	1032.029106914671	365.338217886781	363.041455288241	1049.949671931419	232.731875265163	407.348046856852	1070.317853820854	394.317528318927	617.373056050267	988.198392744023	295.484120511614	672.604518274765	1019.047813224207	200.159331635938	605.603189717195	870.317593737867	44.140229713628	565.426867477832	1040.376816530542	96.880643010300	611.065649909101	949.468781906254	37.257330465479	644.229004910822	1158.178601908835	42.513372501569	646.248662870577	881.790158319506	123.553167166791	447.135844072650	942.258381653633	101.877103349968	359.460609949586	1043.500416813657	131.272186432491	377.560142034670	1141.463223522645	44.815945614023	332.170086350694	941.501588905308	1070.361536410336	279.599413535816	967.184423443750	810.136225514674	284.748690418997	1107.712662799345	1105.875504928804	847.201896360779	1363.022136335972	1087.165548091822	835.446424414662	
110	6.937642857143	833.617209513238	991.475030371508	569.588970907469	995.360781200091	1424.034118689285	376.450667372547	1104.347050385884	1360.903326610005	535.175099126975	1024.243279099144	1434.208363954461	710.744827977010	987.409981023641	1488.544210190974	531.692725385181	1070.237147571699	939.503248880321	680.893455648237	1046.620977776192	956.453665171005	407.385105425593	1112.397044200768	736.803905746277	644.296551997406	1031.027571381293	621.988863761177	696.402155431144	1108.112496671799	574.191060580361	614.675995917413	1106.955074881377	480.788630339013	615.668420190823	1136.113029432139	775.248014018929	444.399228049454	1100.209705314633	646.393577168159	366.268820955798	1199.399560548358	588.153643755243	437.804393139651	1219.010391986392	503.858109358072	427.944991479667	1167.029424667286	433.566182199480	412.138037713384	1041.645535199317	358.940809401045	362.330715185526	1068.069119201648	227.640949866110	407.192786405489	1066.443950097853	393.654209974700	617.368728100976	983.993554148350	295.124097018513	672.709819750351	1014.112207237887	199.734643872174	605.550838945268	864.682151229217	44.097893076030	565.566521450476	1034.685564830523	96.802740393745	611.049357073187	943.804591548562	37.242059246162	644.309083261432	1152.504199600382	42.465865707301	646.288972377458	907.247552093620	107.014868705322	446.404731784814	969.924477694363	89.507069711207	359.207363162567	1068.888665499587	125.955017207749	377.847641459560	1173.243974036966	46.598234672330	333.400443041309	928.251095958989	1071.866372199912	280.947069182222	944.091756908733	811.114840343984	287.596487592871	1117.992853612646	1108.667911671321	846.102248231344	1373.121678313205	1103.384093928536	828.842111046439	
111	6.956428571429	833.276444452927	992.146495679167	571.896134766102	993.036449835950	1423.835246795713	376.314580471810	1104.277499850598	1360.771481373230	533.501707350921	1027.049281079750	1434.715234160373	710.057789095332	987.413446809895	1488.642030544673	531.100543300900	1070.443670303530	939.217054304406	680.575312172325	1044.430956143426	956.665571122127	407.196485175346	1110.411119888132	735.979750959417	643.809123114035	1028.626442946318	621.719847279676	696.676803513738	1104.604552184721	573.416278636739	614.350437120953	1102.596161868385	480.156505745445	615.381121824604	1133.544399251318	775.872630286645	444.176750804395	1098.042201918262	647.160689155518	365.635599633163	1197.243663476825	589.347611796481	437.173325359832	1218.631045557661	506.969597374597	427.419061979106	1170.624959795045	435.642617327852	411.689359789909	1050.968551107310	352.889229244114	360.993596607386	1085.571659819027	223.401419072065	406.708389502903	1061.890576952211	393.209464131850	617.370745380431	979.279067075924	294.856841217824	672.827188998650	1008.875082559657	199.443712730503	605.533635737584	859.037117499602	44.037276088266	565.726917593792	1028.969816998357	96.727744360479	611.037675833109	938.124247401481	37.217435664473	644.393716664623	1146.813219020917	42.451885068622	646.326310526210	932.553785217078	92.292714456681	444.990578028736	997.412728076652	78.484985270322	358.641171725749	1093.689083497089	121.525055790076	378.039028412272	1203.783759820023	49.010972892868	335.350762344865	915.080813799894	1074.020323251947	282.248022771039	922.792431428101	813.271791438771	290.221308684117	1127.725013572575	1111.789488108025	844.723514110700	1381.836342038039	1119.382222341422	821.933718580986	
